[Header]
FileType HTR
DataType HTRS
FileVersion 1
NumSegments 22
NumFrames 6
DataFrameRate 24
EulerRotationOrder ZYX
CalibrationUnits mm
RotationUnits Degrees
GlobalAxisofGravity Y
BoneLengthAxis Y
ScaleFactor 1.0
[SegmentNames&Hierarchy]
reference	GLOBAL
Hips	reference
Spine	Hips
Spine1	Spine
Neck	Spine1
Head	Neck
LeftShoulder	Spine1
LeftArm	LeftShoulder
LeftForeArm	LeftArm
LeftHand	LeftForeArm
RightShoulder	Spine1
RightArm	RightShoulder
RightForeArm	RightArm
RightHand	RightForeArm
LeftUpLeg	Hips
LeftLeg	LeftUpLeg
LeftFoot	LeftLeg
LeftToeBase	LeftFoot
RightUpLeg	Hips
RightLeg	RightUpLeg
RightFoot	RightLeg
RightToeBase	RightFoot
[BasePosition]
reference	0	0	0	0	0	0	1
Hips	0	0	0	0	0	0	1
Spine	0	0	0	0	-0	90	1
Spine1	0	0	0	0	0	0	1
Neck	0	0	0	-7.352430803	-7.352430803	90	1
Head	0	0	0	0	-0	90	1
LeftShoulder	0	0	0	0	0	0	1
LeftArm	0	0	0	0	0	0	1
LeftForeArm	0	0	0	0	0	0	1
LeftHand	0	0	0	0	0	0	1
RightShoulder	0	0	0	0	-0	180	1
RightArm	0	0	0	0	-0	180	1
RightForeArm	0	0	0	0	-0	180	1
RightHand	0	0	0	0	-0	180	1
LeftUpLeg	0	0	0	0	-0	-90	1
LeftLeg	0	0	0	0	-0	-90	1
LeftFoot	0	0	0	66.57150701	-66.57150701	-90	1
LeftToeBase	0	0	0	0	-90	0	1
RightUpLeg	0	0	0	0	-0	-90	1
RightLeg	0	0	0	0	-0	-90	1
RightFoot	0	0	0	66.57150701	-66.57150701	-90	1
RightToeBase	0	0	0	0	-90	0	1
[reference]
58	0	0	0	0	-0	0	1.0
59	0	0	0	0	-0	0	1.0
60	0	0	0	0	-0	0	1.0
61	0	0	0	0	-0	0	1.0
62	0	0	0	0	-0	0	1.0
63	0	0	0	0	-0	0	1.0
[Hips]
58	-2.698191643	8.917890549	3.427749872	-352.0487671	-65.44924927	355.7703247	1.0
59	-2.773095608	8.917890549	3.427749872	-351.2884521	-66.84591675	354.2561035	1.0
60	-2.833223104	8.917890549	3.427749872	-352.2598267	-68.23478699	354.0187073	1.0
61	-2.898429871	8.917890549	3.427749872	-352.1456909	-69.54869843	355.2485657	1.0
62	-2.962239981	8.917890549	3.427749872	-352.0089417	-71.08590698	355.3825073	1.0
63	-3.011871338	8.917890549	3.427749872	-352.0736389	-72.08171844	354.9146423	1.0
[Spine]
58	0	0.7478299737	0	-15.19756699	0.03323218599	-89.32575989	1.0
59	0	0.7478299737	0	-14.81127644	-0.04330188036	-88.96429443	1.0
60	0	0.7478299737	0	-14.47361374	-0.4582839608	-89.23512268	1.0
61	0	0.7478299737	0	-16.06239891	-0.6319002509	-89.98181915	1.0
62	0	0.7478299737	0	-15.74987698	-0.6875710487	-89.54735565	1.0
63	0	0.7478299737	0	-16.58171654	-0.4989948273	-90.07333374	1.0
[Spine1]
58	0	2.049309969	0	10.88135529	0.2725081444	-2.701963663	1.0
59	0	2.049309969	0	11.14676952	0.2204410136	-2.769467592	1.0
60	0	2.049309969	0	11.14707947	0.1222293973	-2.978633165	1.0
61	0	2.049309969	0	11.4627018	0.03964711726	-2.38171649	1.0
62	0	2.049309969	0	12.27667618	0.1100638658	-2.589155436	1.0
63	0	2.049309969	0	12.80048656	0.07534781098	-2.478398323	1.0
[Neck]
58	0	2.231709957	0	3.419347525	-12.02194691	-85.44598389	1.0
59	0	2.231709957	0	4.07595253	-12.05433464	-85.74528503	1.0
60	0	2.231709957	0	4.067052364	-11.74718952	-85.72676086	1.0
61	0	2.231709957	0	4.991601944	-11.46787739	-86.68461609	1.0
62	0	2.231709957	0	4.531523228	-10.89674091	-87.10601807	1.0
63	0	2.231709957	0	4.728611946	-10.50831795	-88.05994415	1.0
[Head]
58	0	1.413589954	0.1823999882	-10.38409805	-19.22573662	-86.04696655	1.0
59	0	1.413589954	0.1823999882	-9.715758324	-19.25107193	-87.06351471	1.0
60	0	1.413589954	0.1823999882	-8.664218903	-18.93812561	-88.47473907	1.0
61	0	1.413589954	0.1823999882	-8.927488327	-18.70074272	-88.29969025	1.0
62	0	1.413589954	0.1823999882	-8.483132362	-18.20282173	-88.52703857	1.0
63	0	1.413589954	0.1823999882	-9.152044296	-17.80759048	-86.26070404	1.0
[LeftShoulder]
58	0.3649300039	1.825889945	-0.04271000251	-11.00653839	-7.691222191	1.683226109	1.0
59	0.3649300039	1.825889945	-0.04271000251	-10.63589001	-6.926254749	1.174234629	1.0
60	0.3649300039	1.825889945	-0.04271000251	-9.8247118	-5.197593689	0.2834091783	1.0
61	0.3649300039	1.825889945	-0.04271000251	-8.556056976	-5.073130608	-0.4952443838	1.0
62	0.3649300039	1.825889945	-0.04271000251	-8.891321182	-5.52238369	0.05843066424	1.0
63	0.3649300039	1.825889945	-0.04271000251	-8.382991791	-4.533360004	-0.5160709023	1.0
[LeftArm]
58	1.24003005	0	0	29.33951378	-2.779859543	-68.95925903	1.0
59	1.24003005	0	0	26.53929901	0.3178438246	-70.01776886	1.0
60	1.24003005	0	0	24.34989929	1.53531754	-70.22368622	1.0
61	1.24003005	0	0	21.59934807	3.664689064	-71.24126434	1.0
62	1.24003005	0	0	20.44772339	5.700275421	-73.70397949	1.0
63	1.24003005	0	0	15.80488586	6.650231838	-74.82932281	1.0
[LeftForeArm]
58	2.847419977	0	0	-22.57675171	-49.26113129	22.64118767	1.0
59	2.847419977	0	0	-13.95415878	-44.35954285	11.55470085	1.0
60	2.847419977	0	0	-5.327813625	-36.02106857	1.929905772	1.0
61	2.847419977	0	0	-2.071761131	-27.47622299	-3.316356897	1.0
62	2.847419977	0	0	-2.193720818	-17.01987457	-5.016506672	1.0
63	2.847419977	0	0	-2.844495058	-8.410896301	-7.625675201	1.0
[LeftHand]
58	2.258270025	0	0	-12.05927753	-9.666017532	-0.3261069655	1.0
59	2.258270025	0	0	-9.286559105	-8.768209457	0.696901381	1.0
60	2.258270025	0	0	-4.504287243	-7.39650631	-2.971832514	1.0
61	2.258270025	0	0	-2.757692575	-7.001597881	-2.037765503	1.0
62	2.258270025	0	0	-2.58846283	-4.550283909	-8.767644882	1.0
63	2.258270025	0	0	-3.275452614	-2.808429956	-4.826686859	1.0
[RightShoulder]
58	-0.3646599948	1.825889945	-0.04271000251	-9.731454849	9.297101021	-178.6832886	1.0
59	-0.3646599948	1.825889945	-0.04271000251	-9.463027954	9.074369431	-178.9368744	1.0
60	-0.3646599948	1.825889945	-0.04271000251	-9.004917145	9.077264786	-178.9804535	1.0
61	-0.3646599948	1.825889945	-0.04271000251	-8.005570412	8.406492233	-178.4544983	1.0
62	-0.3646599948	1.825889945	-0.04271000251	-8.084533691	7.989400864	-178.7075653	1.0
63	-0.3646599948	1.825889945	-0.04271000251	-7.231889725	7.281393051	-178.6461334	1.0
[RightArm]
58	-1.24003005	0	0	40.58177948	7.488681793	-107.2333069	1.0
59	-1.24003005	0	0	41.34197235	5.12537384	-105.2795563	1.0
60	-1.24003005	0	0	41.12805176	3.326000929	-103.6667862	1.0
61	-1.24003005	0	0	38.78430939	1.326372266	-102.2072372	1.0
62	-1.24003005	0	0	32.96855927	-0.9348158836	-100.1489792	1.0
63	-1.24003005	0	0	25.80481148	-2.737103462	-98.76119995	1.0
[RightForeArm]
58	-2.847419977	0	0	-14.12600708	40.8787117	148.2881927	1.0
59	-2.847419977	0	0	-7.754802704	38.82300186	157.6553955	1.0
60	-2.847419977	0	0	-0.983987093	34.96661377	167.8362579	1.0
61	-2.847419977	0	0	3.564009666	28.8861866	174.8573303	1.0
62	-2.847419977	0	0	5.946943283	21.10624886	180.1799927	1.0
63	-2.847419977	0	0	5.595890045	13.46691704	182.6593323	1.0
[RightHand]
58	-2.258270025	0	0	-2.62182045	12.10009384	173.7448578	1.0
59	-2.258270025	0	0	-0.5363131762	11.42786503	172.577179	1.0
60	-2.258270025	0	0	1.982020378	12.00623512	171.6049652	1.0
61	-2.258270025	0	0	4.554224491	11.15686035	176.5771942	1.0
62	-2.258270025	0	0	5.67964983	8.446651459	176.8761749	1.0
63	-2.258270025	0	0	5.046622753	5.721125603	175.4524841	1.0
[LeftUpLeg]
58	0.9119900465	0	0	2.612956285	-1.542539239	88.82080078	1.0
59	0.9119900465	0	0	4.18610096	0.0233681649	89.22866821	1.0
60	0.9119900465	0	0	5.327164173	-0.03760150075	88.84494019	1.0
61	0.9119900465	0	0	4.456083298	-0.5520792007	88.71204376	1.0
62	0.9119900465	0	0	5.960416317	0.1142034531	88.75437927	1.0
63	0.9119900465	0	0	6.056135178	0.8961362839	88.26324463	1.0
[LeftLeg]
58	0	-4.371409893	0	-0.7870943546	-1.902384281	87.60725403	1.0
59	0	-4.371409893	0	-0.5222740173	-1.865047693	88.02897644	1.0
60	0	-4.371409893	0	-0.5228612423	-0.7719724178	88.47616577	1.0
61	0	-4.371409893	0	-0.03300257772	-0.8437788486	88.02770996	1.0
62	0	-4.371409893	0	-0.6219815016	-0.8312241435	88.04447174	1.0
63	0	-4.371409893	0	-0.5993041992	-0.9538156986	88.07530212	1.0
[LeftFoot]
58	0	-3.918009996	0	-94.43185425	112.9664688	-55.06032944	1.0
59	0	-3.918009996	0	-97.0528717	112.3040619	-56.62635803	1.0
60	0	-3.918009996	0	-97.2461853	112.1833115	-55.80849838	1.0
61	0	-3.918009996	0	-92.88665009	112.6460953	-51.10848999	1.0
62	0	-3.918009996	0	-91.81143951	112.6918182	-49.4012146	1.0
63	0	-3.918009996	0	-89.05060577	112.6201248	-47.06597137	1.0
[LeftToeBase]
58	0	-0.5927900076	1.367989898	0	0	0	1.0
59	0	-0.5927900076	1.367989898	0	0	0	1.0
60	0	-0.5927900076	1.367989898	0	0	0	1.0
61	0	-0.5927900076	1.367989898	0	0	0	1.0
62	0	-0.5927900076	1.367989898	0	0	0	1.0
63	0	-0.5927900076	1.367989898	0	0	0	1.0
[RightUpLeg]
58	-0.9119900465	0	0	3.340696335	-7.692815304	91.61332703	1.0
59	-0.9119900465	0	0	4.744973183	-7.995481491	91.63067627	1.0
60	-0.9119900465	0	0	5.832323551	-6.259693623	91.46589661	1.0
61	-0.9119900465	0	0	5.061722279	-4.487312317	91.53473663	1.0
62	-0.9119900465	0	0	5.927213192	-4.487057209	91.41334534	1.0
63	-0.9119900465	0	0	5.84700489	-3.955760002	90.90141296	1.0
[RightLeg]
58	0	-4.371409893	0	0.2424409986	-4.310736179	89.48516083	1.0
59	0	-4.371409893	0	0.2920485735	-3.2796278	89.86491394	1.0
60	0	-4.371409893	0	-0.1786473095	-3.624311209	89.94541931	1.0
61	0	-4.371409893	0	-0.1015562788	-3.687725306	89.74261475	1.0
62	0	-4.371409893	0	0.007363157347	-2.747698784	89.79837036	1.0
63	0	-4.371409893	0	0.03176809847	-2.476809025	89.82415771	1.0
[RightFoot]
58	0	-3.918009996	0	56.80363464	64.70755005	91.19160461	1.0
59	0	-3.918009996	0	57.46282196	64.77763367	92.52598572	1.0
60	0	-3.918009996	0	57.51190186	64.46939087	93.51544189	1.0
61	0	-3.918009996	0	55.22084808	65.42490387	91.05350494	1.0
62	0	-3.918009996	0	56.14955902	64.722435	92.91992188	1.0
63	0	-3.918009996	0	57.01361084	65.22496033	93.85166931	1.0
[RightToeBase]
58	0	-0.5927900076	1.367989898	0	0	0	1.0
59	0	-0.5927900076	1.367989898	0	0	0	1.0
60	0	-0.5927900076	1.367989898	0	0	0	1.0
61	0	-0.5927900076	1.367989898	0	0	0	1.0
62	0	-0.5927900076	1.367989898	0	0	0	1.0
63	0	-0.5927900076	1.367989898	0	0	0	1.0
[EndOfFile]
